<svg width="45" height="12" viewBox="0 0 45 12" fill="none" xmlns="http://www.w3.org/2000/svg">
<path d="M10.3303 11.6H7.96457V6.86855H2.9808V11.6H0.615086V0.339174H2.9808V4.92866H7.96457V0.339174H10.3303V11.6ZM16.8965 0.0868314C17.99 0.0868314 18.952 0.323403 19.7827 0.796545C20.6238 1.25917 21.2757 1.93735 21.7383 2.83106C22.201 3.71426 22.4323 4.76043 22.4323 5.96957C22.4323 7.17872 22.201 8.23015 21.7383 9.12386C21.2757 10.0071 20.6238 10.6852 19.7827 11.1584C18.952 11.621 17.99 11.8523 16.8965 11.8523C15.8135 11.8523 14.8515 11.621 14.0103 11.1584C13.1797 10.6852 12.5278 10.0071 12.0547 9.12386C11.592 8.23015 11.3607 7.17872 11.3607 5.96957C11.3607 4.76043 11.592 3.71426 12.0547 2.83106C12.5278 1.93735 13.1797 1.25917 14.0103 0.796545C14.8515 0.323403 15.8135 0.0868314 16.8965 0.0868314ZM16.8965 9.94398C17.8428 9.94398 18.5998 9.60752 19.1676 8.9346C19.7459 8.25118 20.035 7.26283 20.035 5.96957C20.035 4.67632 19.7459 3.69323 19.1676 3.02032C18.5998 2.33689 17.8428 1.99517 16.8965 1.99517C15.9502 1.99517 15.1932 2.33689 14.6254 3.02032C14.0576 3.69323 13.7738 4.67632 13.7738 5.96957C13.7738 7.26283 14.0576 8.25118 14.6254 8.9346C15.1932 9.60752 15.9502 9.94398 16.8965 9.94398ZM35.2526 11.6H33.0131V3.27266H32.95L30.2057 11.6H28.4551L25.7109 3.27266H25.6478V11.6H23.4713V0.339174H26.9411L29.3383 8.09872H29.4014L31.7987 0.339174H35.2526V11.6ZM44.4189 4.91289V6.7266H38.8516V9.66009H44.7028V11.6H36.4858V0.339174H44.7028V2.21597H38.8516V4.91289H44.4189Z" fill="white"/>
</svg>
